<svg width="100%" height="100%" viewBox="0 0 12 12" version="1.1" xmlns="http://www.w3.org/2000/svg" xmlns:xlink="http://www.w3.org/1999/xlink" xml:space="preserve" style="fill-rule:evenodd;clip-rule:evenodd;stroke-linejoin:round;stroke-miterlimit:1.41421;"><g><path d="M4.236,6.408c-0.398,-0.628 -0.628,-1.372 -0.628,-2.17c0,-2.243 1.82,-4.064 4.063,-4.064c2.242,0 4.063,1.821 4.063,4.064c0,2.242 -1.821,4.063 -4.063,4.063c-0.822,0 -1.587,-0.245 -2.227,-0.665l-3.309,4.089l-1.998,-1.999l4.099,-3.318ZM7.671,1.882c1.3,0 2.355,1.055 2.355,2.356c0,1.3 -1.055,2.355 -2.355,2.355c-1.3,0 -2.356,-1.055 -2.356,-2.355c0,-1.301 1.056,-2.356 2.356,-2.356Z" style="fill:#fff;"/></g></svg>